# xmcd
#
# Track frame offsets:
#	150
#	12271
#	25063
#	39186
#	50254
#	63315
#	80176
#	92187
#	105067
#	119085
#	131262
#	144402
#
# Disc length: 2074 seconds
#
# Revision: 0
# Processed by: cddbd v1.4PL0 Copyright (c) Steve Scherf et al.
# Submitted via: EasyCDDAExtractor 4.6.0.1
#
DISCID=9208180c
DTITLE=BANDA BRAVA - ASI TE AMARE
DYEAR=1998
DGENRE=LATIN
TTITLE0=ASI TE AMARE
TTITLE1=CORAZON DE GALLO
TTITLE2=POBRE CHAMBELAN
TTITLE3=LAS TRES MUJERES
TTITLE4=QUE SEPAN TODOS
TTITLE5=A CIELO ABIERTO
TTITLE6=LA ESTRELLITA
TTITLE7=COMO QUISIERA SER YO
TTITLE8=AL OLVIDO
TTITLE9=EL TODOLOGO
TTITLE10=Y YO QUE LLEGUE A DECIR
TTITLE11=LUIS PULIDO
EXTD=
EXTT0=
EXTT1=
EXTT2=
EXTT3=
EXTT4=
EXTT5=
EXTT6=
EXTT7=
EXTT8=
EXTT9=
EXTT10=
EXTT11=
PLAYORDER=
